<svg xmlns="http://www.w3.org/2000/svg" xmlns:xlink="http://www.w3.org/1999/xlink" xmlns:lucid="lucid" width="1311.62" height="1054.26"><g transform="translate(-249.88107860133277 -47.24432365228961)" lucid:page-tab-id="RJGGQytWxt9x"><path d="M251.38 54.74a6 6 0 0 1 6-6H1554a6 6 0 0 1 6 6V1094a6 6 0 0 1-6 6H257.38a6 6 0 0 1-6-6z" stroke="#dbdbdb" stroke-width="3" fill="#f2f3f5"/><path d="M280.67 298.95a6 6 0 0 1 6-6h1218.28a6 6 0 0 1 6 6v587.1a6 6 0 0 1-6 6H286.67a6 6 0 0 1-6-6z" stroke="#ced4db" stroke-width="3" fill="#ced4db"/><path d="M659.1 337.08a19 19 0 0 1 19-19h456.83a19 19 0 0 1 19 19v122a19 19 0 0 1-19 19H678.1a19 19 0 0 1-19-19z" stroke="#ced4db" stroke-width="3" fill="#ced4db"/><path d="M308.02 638.88h99.85v60h-99.85z" fill="none"/><use xlink:href="#a" transform="matrix(1,0,0,1,308.0199501246883,638.8753117206983) translate(0 34.44444444444444)"/><path d="M308.02 307.88h272.32v60H308.02z" fill="none"/><use xlink:href="#b" transform="matrix(1,0,0,1,308.0199501246883,307.8753117206983) translate(0 35.77777777777778)"/><use xlink:href="#c" transform="matrix(1,0,0,1,308.0199501246883,307.8753117206983) translate(84.98148148148148 35.77777777777778)"/><use xlink:href="#d" transform="matrix(1,0,0,1,308.0199501246883,307.8753117206983) translate(109.05555555555556 35.77777777777778)"/><path d="M1021.66 717.88a19 19 0 0 1 19-19h422a19 19 0 0 1 19 19v122a19 19 0 0 1-19 19h-422a19 19 0 0 1-19-19zM308.02 717.88a19 19 0 0 1 19-19h422a19 19 0 0 1 19 19v122a19 19 0 0 1-19 19h-422a19 19 0 0 1-19-19z" stroke="#ced4db" stroke-width="3" fill="#ced4db"/><g filter="url(#e)"><path d="M1043.55 733.1a.5.5 0 0 1 .5-.5h168.63a.5.5 0 0 1 .5.5v93.4a.5.5 0 0 1-.5.5h-168.63a.5.5 0 0 1-.5-.5z" fill="#fff" fill-opacity="0"/><path d="M1044.05 732.6a.5.5 0 0 0-.5.5v93.4a.5.5 0 0 0 .5.5h168.63a.5.5 0 0 0 .5-.5v-93.4a.5.5 0 0 0-.5-.5z" stroke="#315796" stroke-width="3" fill="#315796"/><use xlink:href="#f" transform="matrix(1,0,0,1,1053.384311490119,743.6434068677295) translate(42.06380208333333 43.166666666666664)"/></g><g filter="url(#e)"><path d="M1283.55 733.1a.5.5 0 0 1 .5-.5h168.63a.5.5 0 0 1 .5.5v93.4a.5.5 0 0 1-.5.5h-168.63a.5.5 0 0 1-.5-.5z" fill="#fff" fill-opacity="0"/><path d="M1284.05 732.6a.5.5 0 0 0-.5.5v93.4a.5.5 0 0 0 .5.5h168.63a.5.5 0 0 0 .5-.5v-93.4a.5.5 0 0 0-.5-.5z" stroke="#315796" stroke-width="3" fill="#315796"/><use xlink:href="#g" transform="matrix(1,0,0,1,1293.384311490119,743.6434068677295) translate(42.06380208333333 43.166666666666664)"/></g><g filter="url(#e)"><path d="M335.28 733.1a.5.5 0 0 1 .5-.5h168.64a.5.5 0 0 1 .5.5v93.4a.5.5 0 0 1-.5.5H335.78a.5.5 0 0 1-.5-.5z" fill="#fff" fill-opacity="0"/><path d="M335.78 732.6a.5.5 0 0 0-.5.5v93.4a.5.5 0 0 0 .5.5h168.64a.5.5 0 0 0 .5-.5v-93.4a.5.5 0 0 0-.5-.5z" stroke="#315796" stroke-width="3" fill="#315796"/><use xlink:href="#h" transform="matrix(1,0,0,1,345.1216901523673,743.6434068677297) translate(42.06380208333333 43.166666666666664)"/></g><g filter="url(#e)"><path d="M575.28 733.1a.5.5 0 0 1 .5-.5h168.64a.5.5 0 0 1 .5.5v93.4a.5.5 0 0 1-.5.5H575.78a.5.5 0 0 1-.5-.5z" fill="#fff" fill-opacity="0"/><path d="M575.78 732.6a.5.5 0 0 0-.5.5v93.4a.5.5 0 0 0 .5.5h168.64a.5.5 0 0 0 .5-.5v-93.4a.5.5 0 0 0-.5-.5z" stroke="#315796" stroke-width="3" fill="#315796"/><use xlink:href="#i" transform="matrix(1,0,0,1,585.1216901523674,743.6434068677297) translate(42.06380208333333 43.166666666666664)"/></g><path d="M487.28 755.8a.5.5 0 0 1 .5-.5h37a.5.5 0 0 1 .5.5v22.97a.5.5 0 0 1-.5.5h-37a.5.5 0 0 1-.5-.5z" fill="#fff" fill-opacity="0"/><path d="M487.78 756.27a.5.5 0 0 0-.5.5v21.03a.5.5 0 0 0 .5.5h37a.5.5 0 0 0 .5-.5V756.8a.5.5 0 0 0-.5-.5z" stroke="#5e5e5e" fill="#fff"/><use xlink:href="#j" transform="matrix(1,0,0,1,501.6840593712816,755.305422016109) translate(-4.010416666666666 16.444444444444443)"/><path d="M487.28 780.84a.5.5 0 0 1 .5-.5h37a.5.5 0 0 1 .5.5v22.96a.5.5 0 0 1-.5.5h-37a.5.5 0 0 1-.5-.5z" fill="#fff" fill-opacity="0"/><path d="M487.78 781.3a.5.5 0 0 0-.5.5v21.04a.5.5 0 0 0 .5.5h37a.5.5 0 0 0 .5-.5V781.8a.5.5 0 0 0-.5-.5z" stroke="#5e5e5e" fill="#fff"/><use xlink:href="#k" transform="matrix(1,0,0,1,501.6840593712816,780.336672016109) translate(-4.010416666666666 16.444444444444443)"/><path d="M555.28 755.8a.5.5 0 0 1 .5-.5h37a.5.5 0 0 1 .5.5v22.97a.5.5 0 0 1-.5.5h-37a.5.5 0 0 1-.5-.5z" fill="#fff" fill-opacity="0"/><path d="M555.78 756.27a.5.5 0 0 0-.5.5v21.03a.5.5 0 0 0 .5.5h37a.5.5 0 0 0 .5-.5V756.8a.5.5 0 0 0-.5-.5z" stroke="#5e5e5e" fill="#fff"/><use xlink:href="#j" transform="matrix(1,0,0,1,569.6840593712816,755.305422016109) translate(-4.010416666666666 16.444444444444443)"/><path d="M555.28 780.84a.5.5 0 0 1 .5-.5h37a.5.5 0 0 1 .5.5v22.96a.5.5 0 0 1-.5.5h-37a.5.5 0 0 1-.5-.5z" fill="#fff" fill-opacity="0"/><path d="M555.78 781.3a.5.5 0 0 0-.5.5v21.04a.5.5 0 0 0 .5.5h37a.5.5 0 0 0 .5-.5V781.8a.5.5 0 0 0-.5-.5z" stroke="#5e5e5e" fill="#fff"/><use xlink:href="#k" transform="matrix(1,0,0,1,569.6840593712816,780.336672016109) translate(-4.010416666666666 16.444444444444443)"/><path d="M527.28 767.3h26" stroke="#5e5e5e" stroke-width="3" fill="none"/><path d="M527.32 768.76h-1.54v-2.94h1.54zM554.78 768.76h-1.54v-2.94h1.54z" stroke="#5e5e5e" stroke-width=".05" fill="#5e5e5e"/><path d="M527.28 792.32h26" stroke="#5e5e5e" stroke-width="3" fill="none"/><path d="M527.32 793.8h-1.54v-2.95h1.54zM554.78 793.8h-1.54v-2.95h1.54z" stroke="#5e5e5e" stroke-width=".05" fill="#5e5e5e"/><path d="M1195.18 755.8a.5.5 0 0 1 .5-.5h37a.5.5 0 0 1 .5.5v22.97a.5.5 0 0 1-.5.5h-37a.5.5 0 0 1-.5-.5z" fill="#fff" fill-opacity="0"/><path d="M1195.68 756.27a.5.5 0 0 0-.5.5v21.03a.5.5 0 0 0 .5.5h37a.5.5 0 0 0 .5-.5V756.8a.5.5 0 0 0-.5-.5z" stroke="#5e5e5e" fill="#fff"/><use xlink:href="#j" transform="matrix(1,0,0,1,1209.586775807673,755.305422016109) translate(-4.010416666666666 16.444444444444443)"/><path d="M1195.18 780.84a.5.5 0 0 1 .5-.5h37a.5.5 0 0 1 .5.5v22.96a.5.5 0 0 1-.5.5h-37a.5.5 0 0 1-.5-.5z" fill="#fff" fill-opacity="0"/><path d="M1195.68 781.3a.5.5 0 0 0-.5.5v21.04a.5.5 0 0 0 .5.5h37a.5.5 0 0 0 .5-.5V781.8a.5.5 0 0 0-.5-.5z" stroke="#5e5e5e" fill="#fff"/><use xlink:href="#k" transform="matrix(1,0,0,1,1209.586775807673,780.336672016109) translate(-4.010416666666666 16.444444444444443)"/><path d="M1263.18 755.8a.5.5 0 0 1 .5-.5h37a.5.5 0 0 1 .5.5v22.97a.5.5 0 0 1-.5.5h-37a.5.5 0 0 1-.5-.5z" fill="#fff" fill-opacity="0"/><path d="M1263.68 756.27a.5.5 0 0 0-.5.5v21.03a.5.5 0 0 0 .5.5h37a.5.5 0 0 0 .5-.5V756.8a.5.5 0 0 0-.5-.5z" stroke="#5e5e5e" fill="#fff"/><use xlink:href="#j" transform="matrix(1,0,0,1,1277.586775807673,755.305422016109) translate(-4.010416666666666 16.444444444444443)"/><path d="M1263.18 780.84a.5.5 0 0 1 .5-.5h37a.5.5 0 0 1 .5.5v22.96a.5.5 0 0 1-.5.5h-37a.5.5 0 0 1-.5-.5z" fill="#fff" fill-opacity="0"/><path d="M1263.68 781.3a.5.5 0 0 0-.5.5v21.04a.5.5 0 0 0 .5.5h37a.5.5 0 0 0 .5-.5V781.8a.5.5 0 0 0-.5-.5z" stroke="#5e5e5e" fill="#fff"/><use xlink:href="#k" transform="matrix(1,0,0,1,1277.586775807673,780.336672016109) translate(-4.010416666666666 16.444444444444443)"/><path d="M1235.18 767.3h26" stroke="#5e5e5e" stroke-width="3" fill="none"/><path d="M1235.22 768.76h-1.54v-2.94h1.54zM1262.68 768.76h-1.53v-2.94h1.53z" stroke="#5e5e5e" stroke-width=".05" fill="#5e5e5e"/><path d="M1235.18 792.32h26" stroke="#5e5e5e" stroke-width="3" fill="none"/><path d="M1235.22 793.8h-1.54v-2.95h1.54zM1262.68 793.8h-1.53v-2.95h1.53z" stroke="#5e5e5e" stroke-width=".05" fill="#5e5e5e"/><g filter="url(#e)"><path d="M682.02 350.38a.5.5 0 0 1 .5-.5h168.64a.5.5 0 0 1 .5.5v93.4a.5.5 0 0 1-.5.5H682.52a.5.5 0 0 1-.5-.5z" fill="#fff" fill-opacity="0"/><path d="M682.52 349.88a.5.5 0 0 0-.5.5v93.4a.5.5 0 0 0 .5.5h168.64a.5.5 0 0 0 .5-.5v-93.4a.5.5 0 0 0-.5-.5z" stroke="#315796" stroke-width="3" fill="#315796"/><use xlink:href="#l" transform="matrix(1,0,0,1,691.858984346356,360.92219363286637) translate(36.002604166666664 43.166666666666664)"/></g><g filter="url(#e)"><path d="M962.02 350.38a.5.5 0 0 1 .5-.5h168.64a.5.5 0 0 1 .5.5v93.4a.5.5 0 0 1-.5.5H962.52a.5.5 0 0 1-.5-.5z" fill="#fff" fill-opacity="0"/><path d="M962.52 349.88a.5.5 0 0 0-.5.5v93.4a.5.5 0 0 0 .5.5h168.64a.5.5 0 0 0 .5-.5v-93.4a.5.5 0 0 0-.5-.5z" stroke="#315796" stroke-width="3" fill="#315796"/><use xlink:href="#m" transform="matrix(1,0,0,1,971.858984346356,360.92219363286637) translate(36.002604166666664 43.166666666666664)"/></g><path d="M401.36 719.38L708.4 455.82" stroke="#5e5e5e" stroke-width="3" fill="none"/><path d="M402.25 720.36h-4.3l2.47-2.13zM709.32 456.96l-1.82-2.12h4.3z" stroke="#5e5e5e" stroke-width=".05" fill="#5e5e5e"/><path d="M440.8 719.7l540.5-264.2" stroke="#5e5e5e" stroke-width="3" fill="none"/><path d="M441.17 720.36h-5.05l4.07-2zM985.98 454.85l-4.08 2-.98-2h5.06z" stroke="#5e5e5e" stroke-width=".05" fill="#5e5e5e"/><path d="M640.96 718.96l100.92-262.72" stroke="#5e5e5e" stroke-width="3" fill="none"/><path d="M642.35 719.45l-.35.9h-3.16l.75-1.96zM743.24 456.8l-2.75-1.05.34-.9H744z" stroke="#5e5e5e" stroke-width=".05" fill="#5e5e5e"/><path d="M681.97 719.44l342.34-263.68" stroke="#5e5e5e" stroke-width="3" fill="none"/><path d="M682.73 720.36h-4.36l2.74-2.1zM1025.18 456.95l-1.63-2.1h4.36z" stroke="#5e5e5e" stroke-width=".05" fill="#5e5e5e"/><path d="M1110.68 719.4L789 455.8" stroke="#5e5e5e" stroke-width="3" fill="none"/><path d="M1114.16 720.36h-4.3l1.72-2.12zM788.1 456.96l-2.57-2.12h4.3z" stroke="#5e5e5e" stroke-width=".05" fill="#5e5e5e"/><path d="M1144.6 718.9l-72.84-262.6" stroke="#5e5e5e" stroke-width="3" fill="none"/><path d="M1146.52 720.36h-3.06l-.3-1.1 2.84-.78zM1073.2 455.93l-2.85.8-.52-1.9h3.06z" stroke="#5e5e5e" stroke-width=".05" fill="#5e5e5e"/><path d="M1346.62 719.67l-517.8-264.14" stroke="#5e5e5e" stroke-width="3" fill="none"/><path d="M1351.2 720.36h-4.98l1.03-2.02zM828.2 456.86l-3.96-2.02h4.98z" stroke="#5e5e5e" stroke-width=".05" fill="#5e5e5e"/><path d="M1386.56 719.33L1108.5 455.88" stroke="#5e5e5e" stroke-width="3" fill="none"/><path d="M1389.8 720.36h-4.27l2-2.13zM1107.5 456.97l-2.24-2.13h4.26z" stroke="#5e5e5e" stroke-width=".05" fill="#5e5e5e"/><path d="M829.66 368.38a.5.5 0 0 1 .5-.5h37a.5.5 0 0 1 .5.5v22.96a.5.5 0 0 1-.5.5h-37a.5.5 0 0 1-.5-.5z" fill="#fff" fill-opacity="0"/><path d="M830.16 368.85a.5.5 0 0 0-.5.5v21.02a.5.5 0 0 0 .5.5h37a.5.5 0 0 0 .5-.5v-21.02a.5.5 0 0 0-.5-.5z" stroke="#5e5e5e" fill="#fff"/><use xlink:href="#j" transform="matrix(1,0,0,1,844.066449873619,367.8753117206983) translate(-4.010416666666666 16.444444444444443)"/><path d="M829.66 393.4a.5.5 0 0 1 .5-.5h37a.5.5 0 0 1 .5.5v22.98a.5.5 0 0 1-.5.5h-37a.5.5 0 0 1-.5-.5z" fill="#fff" fill-opacity="0"/><path d="M830.16 393.88a.5.5 0 0 0-.5.5v21.03a.5.5 0 0 0 .5.5h37a.5.5 0 0 0 .5-.5V394.4a.5.5 0 0 0-.5-.5z" stroke="#5e5e5e" fill="#fff"/><use xlink:href="#k" transform="matrix(1,0,0,1,844.066449873619,392.9065617206983) translate(-4.010416666666666 16.444444444444443)"/><path d="M937.15 368.38a.5.5 0 0 1 .5-.5h37a.5.5 0 0 1 .5.5v22.96a.5.5 0 0 1-.5.5h-37a.5.5 0 0 1-.5-.5z" fill="#fff" fill-opacity="0"/><path d="M937.65 368.85a.5.5 0 0 0-.5.5v21.02a.5.5 0 0 0 .5.5h37a.5.5 0 0 0 .5-.5v-21.02a.5.5 0 0 0-.5-.5z" stroke="#5e5e5e" fill="#fff"/><use xlink:href="#j" transform="matrix(1,0,0,1,951.5544605607217,367.8753117206983) translate(-4.010416666666666 16.444444444444443)"/><path d="M937.15 393.4a.5.5 0 0 1 .5-.5h37a.5.5 0 0 1 .5.5v22.98a.5.5 0 0 1-.5.5h-37a.5.5 0 0 1-.5-.5z" fill="#fff" fill-opacity="0"/><path d="M937.65 393.88a.5.5 0 0 0-.5.5v21.03a.5.5 0 0 0 .5.5h37a.5.5 0 0 0 .5-.5V394.4a.5.5 0 0 0-.5-.5z" stroke="#5e5e5e" fill="#fff"/><use xlink:href="#k" transform="matrix(1,0,0,1,951.5544605607217,392.9065617206983) translate(-4.010416666666666 16.444444444444443)"/><path d="M869.66 379.86h65.5" stroke="#5e5e5e" stroke-width="3" fill="none"/><path d="M869.7 381.33h-1.54v-2.94h1.54zM936.65 381.33h-1.53v-2.94h1.53z" stroke="#5e5e5e" stroke-width=".05" fill="#5e5e5e"/><path d="M869.66 404.9h65.5" stroke="#5e5e5e" stroke-width="3" fill="none"/><path d="M869.7 406.37h-1.54v-2.95h1.54zM936.65 406.37h-1.53v-2.95h1.53z" stroke="#5e5e5e" stroke-width=".05" fill="#5e5e5e"/><path d="M829.66 626.24c0 9.03-79.24 16.36-177 16.36-97.75 0-177-7.33-177-16.37 0-9.03 79.25-16.36 177-16.36 97.76 0 177 7.33 177 16.37zM1315.15 629.6c0 9.04-76.1 16.37-170 16.37s-170-7.33-170-16.36 76.1-16.35 170-16.35 170 7.32 170 16.36zM904.93 416.24c-3.82 0-6.9-10.38-6.9-23.18 0-12.8 3.08-23.2 6.9-23.2 3.82 0 6.9 10.4 6.9 23.2 0 12.8-3.08 23.18-6.9 23.18zM539.93 802.24c-3.82 0-6.9-10.38-6.9-23.18 0-12.8 3.08-23.2 6.9-23.2 3.82 0 6.9 10.4 6.9 23.2 0 12.8-3.08 23.18-6.9 23.18zM1246.93 803.24c-3.82 0-6.9-10.38-6.9-23.18 0-12.8 3.08-23.2 6.9-23.2 3.82 0 6.9 10.4 6.9 23.2 0 12.8-3.08 23.18-6.9 23.18z" stroke="#5e5e5e" stroke-width="2" fill-opacity="0"/><path d="M687.84 431.38a.5.5 0 0 1 .5-.5h37a.5.5 0 0 1 .5.5v22.96a.5.5 0 0 1-.5.5h-37a.5.5 0 0 1-.5-.5z" fill="#fff" fill-opacity="0"/><path d="M688.34 431.85a.5.5 0 0 0-.5.5v21.02a.5.5 0 0 0 .5.5h37a.5.5 0 0 0 .5-.5v-21.02a.5.5 0 0 0-.5-.5z" stroke="#5e5e5e" fill="#fff"/><use xlink:href="#n" transform="matrix(1,0,0,1,702.2417946234416,430.8753117206983) translate(0.49479166666666696 16.444444444444443)"/><path d="M727.84 431.38a.5.5 0 0 1 .5-.5h37a.5.5 0 0 1 .5.5v22.96a.5.5 0 0 1-.5.5h-37a.5.5 0 0 1-.5-.5z" fill="#fff" fill-opacity="0"/><path d="M728.34 431.85a.5.5 0 0 0-.5.5v21.02a.5.5 0 0 0 .5.5h37a.5.5 0 0 0 .5-.5v-21.02a.5.5 0 0 0-.5-.5z" stroke="#5e5e5e" fill="#fff"/><use xlink:href="#o" transform="matrix(1,0,0,1,742.2402205880378,430.8753117206983) translate(0.49479166666666696 16.444444444444443)"/><path d="M767.84 431.38a.5.5 0 0 1 .5-.5h37a.5.5 0 0 1 .5.5v22.96a.5.5 0 0 1-.5.5h-37a.5.5 0 0 1-.5-.5z" fill="#fff" fill-opacity="0"/><path d="M768.34 431.85a.5.5 0 0 0-.5.5v21.02a.5.5 0 0 0 .5.5h37a.5.5 0 0 0 .5-.5v-21.02a.5.5 0 0 0-.5-.5z" stroke="#5e5e5e" fill="#fff"/><use xlink:href="#p" transform="matrix(1,0,0,1,782.2425816411435,430.8753117206983) translate(0.49479166666666696 16.444444444444443)"/><path d="M807.84 431.38a.5.5 0 0 1 .5-.5h37a.5.5 0 0 1 .5.5v22.96a.5.5 0 0 1-.5.5h-37a.5.5 0 0 1-.5-.5z" fill="#fff" fill-opacity="0"/><path d="M808.34 431.85a.5.5 0 0 0-.5.5v21.02a.5.5 0 0 0 .5.5h37a.5.5 0 0 0 .5-.5v-21.02a.5.5 0 0 0-.5-.5z" stroke="#5e5e5e" fill="#fff"/><use xlink:href="#q" transform="matrix(1,0,0,1,822.2410076057399,430.8753117206983) translate(0.49479166666666696 16.444444444444443)"/><path d="M967.84 431.38a.5.5 0 0 1 .5-.5h37a.5.5 0 0 1 .5.5v22.96a.5.5 0 0 1-.5.5h-37a.5.5 0 0 1-.5-.5z" fill="#fff" fill-opacity="0"/><path d="M968.34 431.85a.5.5 0 0 0-.5.5v21.02a.5.5 0 0 0 .5.5h37a.5.5 0 0 0 .5-.5v-21.02a.5.5 0 0 0-.5-.5z" stroke="#5e5e5e" fill="#fff"/><use xlink:href="#n" transform="matrix(1,0,0,1,982.2417946234414,430.8753117206983) translate(0.49479166666666696 16.444444444444443)"/><path d="M1007.84 431.38a.5.5 0 0 1 .5-.5h37a.5.5 0 0 1 .5.5v22.96a.5.5 0 0 1-.5.5h-37a.5.5 0 0 1-.5-.5z" fill="#fff" fill-opacity="0"/><path d="M1008.34 431.85a.5.5 0 0 0-.5.5v21.02a.5.5 0 0 0 .5.5h37a.5.5 0 0 0 .5-.5v-21.02a.5.5 0 0 0-.5-.5z" stroke="#5e5e5e" fill="#fff"/><use xlink:href="#o" transform="matrix(1,0,0,1,1022.2402205880386,430.8753117206983) translate(0.49479166666666696 16.444444444444443)"/><path d="M1047.84 431.38a.5.5 0 0 1 .5-.5h37a.5.5 0 0 1 .5.5v22.96a.5.5 0 0 1-.5.5h-37a.5.5 0 0 1-.5-.5z" fill="#fff" fill-opacity="0"/><path d="M1048.34 431.85a.5.5 0 0 0-.5.5v21.02a.5.5 0 0 0 .5.5h37a.5.5 0 0 0 .5-.5v-21.02a.5.5 0 0 0-.5-.5z" stroke="#5e5e5e" fill="#fff"/><use xlink:href="#p" transform="matrix(1,0,0,1,1062.2425816411435,430.8753117206983) translate(0.49479166666666696 16.444444444444443)"/><path d="M1087.84 431.38a.5.5 0 0 1 .5-.5h37a.5.5 0 0 1 .5.5v22.96a.5.5 0 0 1-.5.5h-37a.5.5 0 0 1-.5-.5z" fill="#fff" fill-opacity="0"/><path d="M1088.34 431.85a.5.5 0 0 0-.5.5v21.02a.5.5 0 0 0 .5.5h37a.5.5 0 0 0 .5-.5v-21.02a.5.5 0 0 0-.5-.5z" stroke="#5e5e5e" fill="#fff"/><use xlink:href="#q" transform="matrix(1,0,0,1,1102.2410076057402,430.8753117206983) translate(0.49479166666666696 16.444444444444443)"/><path d="M381.56 720.86a.5.5 0 0 1 .5-.5h37a.5.5 0 0 1 .5.5v22.97a.5.5 0 0 1-.5.5h-37a.5.5 0 0 1-.5-.5z" fill="#fff" fill-opacity="0"/><path d="M382.06 721.33a.5.5 0 0 0-.5.5v21.03a.5.5 0 0 0 .5.5h37a.5.5 0 0 0 .5-.5v-21.03a.5.5 0 0 0-.5-.5z" stroke="#5e5e5e" fill="#fff"/><use xlink:href="#n" transform="matrix(1,0,0,1,395.96233673408545,720.3563778950144) translate(0.49479166666666696 16.444444444444443)"/><path d="M420.64 720.86a.5.5 0 0 1 .5-.5h37a.5.5 0 0 1 .5.5v22.97a.5.5 0 0 1-.5.5h-37a.5.5 0 0 1-.5-.5z" fill="#fff" fill-opacity="0"/><path d="M421.14 721.33a.5.5 0 0 0-.5.5v21.03a.5.5 0 0 0 .5.5h37a.5.5 0 0 0 .5-.5v-21.03a.5.5 0 0 0-.5-.5z" stroke="#5e5e5e" fill="#fff"/><use xlink:href="#o" transform="matrix(1,0,0,1,435.04587710711854,720.3563778950144) translate(0.49479166666666696 16.444444444444443)"/><path d="M621.1 720.86a.5.5 0 0 1 .5-.5h37a.5.5 0 0 1 .5.5v22.97a.5.5 0 0 1-.5.5h-37a.5.5 0 0 1-.5-.5z" fill="#fff" fill-opacity="0"/><path d="M621.6 721.33a.5.5 0 0 0-.5.5v21.03a.5.5 0 0 0 .5.5h37a.5.5 0 0 0 .5-.5v-21.03a.5.5 0 0 0-.5-.5z" stroke="#5e5e5e" fill="#fff"/><use xlink:href="#n" transform="matrix(1,0,0,1,635.5048939383039,720.3563778950144) translate(0.49479166666666696 16.444444444444443)"/><path d="M661.1 720.86a.5.5 0 0 1 .5-.5h37a.5.5 0 0 1 .5.5v22.97a.5.5 0 0 1-.5.5h-37a.5.5 0 0 1-.5-.5z" fill="#fff" fill-opacity="0"/><path d="M661.6 721.33a.5.5 0 0 0-.5.5v21.03a.5.5 0 0 0 .5.5h37a.5.5 0 0 0 .5-.5v-21.03a.5.5 0 0 0-.5-.5z" stroke="#5e5e5e" fill="#fff"/><use xlink:href="#o" transform="matrix(1,0,0,1,675.5033199029001,720.3563778950144) translate(0.49479166666666696 16.444444444444443)"/><path d="M1089.37 720.86a.5.5 0 0 1 .5-.5h37a.5.5 0 0 1 .5.5v22.97a.5.5 0 0 1-.5.5h-37a.5.5 0 0 1-.5-.5z" fill="#fff" fill-opacity="0"/><path d="M1089.87 721.33a.5.5 0 0 0-.5.5v21.03a.5.5 0 0 0 .5.5h37a.5.5 0 0 0 .5-.5v-21.03a.5.5 0 0 0-.5-.5z" stroke="#5e5e5e" fill="#fff"/><use xlink:href="#n" transform="matrix(1,0,0,1,1103.7675152760555,720.3563778950144) translate(0.49479166666666696 16.444444444444443)"/><path d="M1129.37 720.86a.5.5 0 0 1 .5-.5h37a.5.5 0 0 1 .5.5v22.97a.5.5 0 0 1-.5.5h-37a.5.5 0 0 1-.5-.5z" fill="#fff" fill-opacity="0"/><path d="M1129.87 721.33a.5.5 0 0 0-.5.5v21.03a.5.5 0 0 0 .5.5h37a.5.5 0 0 0 .5-.5v-21.03a.5.5 0 0 0-.5-.5z" stroke="#5e5e5e" fill="#fff"/><use xlink:href="#o" transform="matrix(1,0,0,1,1143.7659412406517,720.3563778950144) translate(0.49479166666666696 16.444444444444443)"/><path d="M1329.37 720.86a.5.5 0 0 1 .5-.5h37a.5.5 0 0 1 .5.5v22.97a.5.5 0 0 1-.5.5h-37a.5.5 0 0 1-.5-.5z" fill="#fff" fill-opacity="0"/><path d="M1329.87 721.33a.5.5 0 0 0-.5.5v21.03a.5.5 0 0 0 .5.5h37a.5.5 0 0 0 .5-.5v-21.03a.5.5 0 0 0-.5-.5z" stroke="#5e5e5e" fill="#fff"/><use xlink:href="#n" transform="matrix(1,0,0,1,1343.7675152760555,720.3563778950144) translate(0.49479166666666696 16.444444444444443)"/><path d="M1369.37 720.86a.5.5 0 0 1 .5-.5h37a.5.5 0 0 1 .5.5v22.97a.5.5 0 0 1-.5.5h-37a.5.5 0 0 1-.5-.5z" fill="#fff" fill-opacity="0"/><path d="M1369.87 721.33a.5.5 0 0 0-.5.5v21.03a.5.5 0 0 0 .5.5h37a.5.5 0 0 0 .5-.5v-21.03a.5.5 0 0 0-.5-.5z" stroke="#5e5e5e" fill="#fff"/><use xlink:href="#o" transform="matrix(1,0,0,1,1383.7659412406517,720.3563778950144) translate(0.49479166666666696 16.444444444444443)"/><path d="M1393.92 638.88h87.74v60h-87.74z" fill="none"/><use xlink:href="#r" transform="matrix(1,0,0,1,1393.9231022311824,638.8753117206983) translate(11.70370370370371 34.44444444444444)"/><g filter="url(#s)"><path d="M362.24 968.27a5 5 0 0 1 5-5h102a5 5 0 0 1 5 5v102a5 5 0 0 1-5 5h-102a5 5 0 0 1-5-5z" fill="#fff" fill-opacity="0"/><path d="M367.24 963.27a5 5 0 0 0-5 5v102a5 5 0 0 0 5 5h102a5 5 0 0 0 5-5v-102a5 5 0 0 0-5-5z" stroke="#6db1ff" stroke-width="3" fill="#6db1ff"/><use xlink:href="#t" transform="matrix(1,0,0,1,368.7351857506361,976.3785634992487) translate(16.049479166666664 36.33333333333333)"/><use xlink:href="#u" transform="matrix(1,0,0,1,368.7351857506361,976.3785634992487) translate(25.665364583333332 63)"/></g><g filter="url(#s)"><path d="M604.1 968.27a5 5 0 0 1 5-5h102a5 5 0 0 1 5 5v102a5 5 0 0 1-5 5h-102a5 5 0 0 1-5-5z" fill="#fff" fill-opacity="0"/><path d="M609.1 963.27a5 5 0 0 0-5 5v102a5 5 0 0 0 5 5h102a5 5 0 0 0 5-5v-102a5 5 0 0 0-5-5z" stroke="#00ba95" stroke-width="3" fill="#00ba95"/><use xlink:href="#v" transform="matrix(1,0,0,1,610.5979164623182,976.3785634992487) translate(16.654947916666664 36.33333333333333)"/><use xlink:href="#u" transform="matrix(1,0,0,1,610.5979164623182,976.3785634992487) translate(25.665364583333332 63)"/></g><g filter="url(#s)"><path d="M1072.37 968.27a5 5 0 0 1 5-5h102a5 5 0 0 1 5 5v102a5 5 0 0 1-5 5h-102a5 5 0 0 1-5-5z" fill="#fff" fill-opacity="0"/><path d="M1077.37 963.27a5 5 0 0 0-5 5v102a5 5 0 0 0 5 5h102a5 5 0 0 0 5-5v-102a5 5 0 0 0-5-5z" stroke="#6db1ff" stroke-width="3" fill="#6db1ff"/><use xlink:href="#w" transform="matrix(1,0,0,1,1078.8605378000698,976.3785634992487) translate(17.071614583333336 36.33333333333333)"/><use xlink:href="#x" transform="matrix(1,0,0,1,1078.8605378000698,976.3785634992487) translate(25.665364583333332 63)"/></g><g filter="url(#s)"><path d="M1315.15 968.27a5 5 0 0 1 5-5h102a5 5 0 0 1 5 5v102a5 5 0 0 1-5 5h-102a5 5 0 0 1-5-5z" fill="#fff" fill-opacity="0"/><path d="M1320.15 963.27a5 5 0 0 0-5 5v102a5 5 0 0 0 5 5h102a5 5 0 0 0 5-5v-102a5 5 0 0 0-5-5z" stroke="#9391ff" stroke-width="3" fill="#9391ff"/><use xlink:href="#y" transform="matrix(1,0,0,1,1321.647483084736,976.3785634992487) translate(15.723958333333329 36.33333333333333)"/><use xlink:href="#u" transform="matrix(1,0,0,1,1321.647483084736,976.3785634992487) translate(25.665364583333332 63)"/></g><path d="M418.8 960.27l-.42-122.16" stroke="#5e5e5e" stroke-width="3" fill="none"/><path d="M420.26 961.77h-2.95v-1.53h2.96zM419.86 838.15h-2.95v-1.54h2.95z" stroke="#5e5e5e" stroke-width=".05" fill="#5e5e5e"/><path d="M660.1 960.27V838.1" stroke="#5e5e5e" stroke-width="3" fill="none"/><path d="M661.58 961.77h-2.95v-1.53h2.95zM661.58 838.15h-2.95v-1.54h2.95z" stroke="#5e5e5e" stroke-width=".05" fill="#5e5e5e"/><path d="M1128.37 960.27V838.1" stroke="#5e5e5e" stroke-width="3" fill="none"/><path d="M1129.84 961.77h-2.95v-1.53h2.94zM1129.84 838.15h-2.95v-1.54h2.94z" stroke="#5e5e5e" stroke-width=".05" fill="#5e5e5e"/><path d="M1370.3 960.27l-2.14-122.16" stroke="#5e5e5e" stroke-width="3" fill="none"/><path d="M1371.8 961.77h-2.95l-.02-1.5 2.95-.06zM1369.64 838.13l-2.95.05-.04-1.57h2.95z" stroke="#5e5e5e" stroke-width=".05" fill="#5e5e5e"/><path d="M401.1 813.14a.5.5 0 0 1 .5-.5h37a.5.5 0 0 1 .5.5v22.97a.5.5 0 0 1-.5.5h-37a.5.5 0 0 1-.5-.5z" fill="#fff" fill-opacity="0"/><path d="M401.6 813.6a.5.5 0 0 0-.5.5v21.04a.5.5 0 0 0 .5.5h37a.5.5 0 0 0 .5-.5V814.1a.5.5 0 0 0-.5-.5z" stroke="#5e5e5e" fill="#fff"/><use xlink:href="#p" transform="matrix(1,0,0,1,415.504106920602,812.6439872705151) translate(0.49479166666666696 16.444444444444443)"/><path d="M641.1 813.14a.5.5 0 0 1 .5-.5h37a.5.5 0 0 1 .5.5v22.97a.5.5 0 0 1-.5.5h-37a.5.5 0 0 1-.5-.5z" fill="#fff" fill-opacity="0"/><path d="M641.6 813.6a.5.5 0 0 0-.5.5v21.04a.5.5 0 0 0 .5.5h37a.5.5 0 0 0 .5-.5V814.1a.5.5 0 0 0-.5-.5z" stroke="#5e5e5e" fill="#fff"/><use xlink:href="#p" transform="matrix(1,0,0,1,655.504106920602,812.6439872705151) translate(0.49479166666666696 16.444444444444443)"/><path d="M1109.37 813.14a.5.5 0 0 1 .5-.5h37a.5.5 0 0 1 .5.5v22.97a.5.5 0 0 1-.5.5h-37a.5.5 0 0 1-.5-.5z" fill="#fff" fill-opacity="0"/><path d="M1109.87 813.6a.5.5 0 0 0-.5.5v21.04a.5.5 0 0 0 .5.5h37a.5.5 0 0 0 .5-.5V814.1a.5.5 0 0 0-.5-.5z" stroke="#5e5e5e" fill="#fff"/><use xlink:href="#p" transform="matrix(1,0,0,1,1123.7667282583534,812.6439872705151) translate(0.49479166666666696 16.444444444444443)"/><path d="M1349.37 813.14a.5.5 0 0 1 .5-.5h37a.5.5 0 0 1 .5.5v22.97a.5.5 0 0 1-.5.5h-37a.5.5 0 0 1-.5-.5z" fill="#fff" fill-opacity="0"/><path d="M1349.87 813.6a.5.5 0 0 0-.5.5v21.04a.5.5 0 0 0 .5.5h37a.5.5 0 0 0 .5-.5V814.1a.5.5 0 0 0-.5-.5z" stroke="#5e5e5e" fill="#fff"/><use xlink:href="#p" transform="matrix(1,0,0,1,1363.7667282583534,812.6439872705151) translate(0.49479166666666696 16.444444444444443)"/><g filter="url(#e)"><path d="M821.7 72.5a.5.5 0 0 1 .5-.5h168.64a.5.5 0 0 1 .5.5v93.42a.5.5 0 0 1-.5.5H822.2a.5.5 0 0 1-.5-.5z" fill="#fff" fill-opacity="0"/><path d="M822.2 72a.5.5 0 0 0-.5.5v93.42a.5.5 0 0 0 .5.5h168.64a.5.5 0 0 0 .5-.5v-93.4a.5.5 0 0 0-.5-.5z" stroke="#6f7681" stroke-width="3" fill="#6f7681"/><use xlink:href="#z" transform="matrix(1,0,0,1,831.5374465406105,83.05305502734355) translate(38.671875 29.833333333333332)"/><use xlink:href="#A" transform="matrix(1,0,0,1,831.5374465406105,83.05305502734355) translate(35.091145833333336 56.5)"/></g><path d="M769.28 335.04L876 169.18" stroke="#5e5e5e" stroke-width="3" fill="none"/><path d="M770.54 335.8l-.3.5h-3.52l1.34-2.1zM878.57 167.92l-1.35 2.1-2.48-1.6.32-.5z" stroke="#5e5e5e" stroke-width=".05" fill="#5e5e5e"/><path d="M1047.34 335.05L937.2 169.17" stroke="#5e5e5e" stroke-width="3" fill="none"/><path d="M1049.94 336.3h-3.55l-.3-.46 2.44-1.63zM938.13 167.92l.3.47-2.45 1.62-1.4-2.1z" stroke="#5e5e5e" stroke-width=".05" fill="#5e5e5e"/><path d="M976.92 216.15c0 7.87-32.07 14.25-71.63 14.25-39.57 0-71.63-6.38-71.63-14.25s32.06-14.25 71.62-14.25c39.55 0 71.62 6.38 71.62 14.25z" stroke="#5e5e5e" stroke-width="2" fill-opacity="0"/><path d="M747.84 336.8a.5.5 0 0 1 .5-.5h37a.5.5 0 0 1 .5.5v22.97a.5.5 0 0 1-.5.5h-37a.5.5 0 0 1-.5-.5z" fill="#fff" fill-opacity="0"/><path d="M748.34 337.27a.5.5 0 0 0-.5.5v21.03a.5.5 0 0 0 .5.5h37a.5.5 0 0 0 .5-.5v-21.03a.5.5 0 0 0-.5-.5z" stroke="#5e5e5e" fill="#fff"/><use xlink:href="#B" transform="matrix(1,0,0,1,762.2414011145908,336.3040291828727) translate(0.49479166666666696 16.444444444444443)"/><path d="M1027.84 336.8a.5.5 0 0 1 .5-.5h37a.5.5 0 0 1 .5.5v22.97a.5.5 0 0 1-.5.5h-37a.5.5 0 0 1-.5-.5z" fill="#fff" fill-opacity="0"/><path d="M1028.34 337.27a.5.5 0 0 0-.5.5v21.03a.5.5 0 0 0 .5.5h37a.5.5 0 0 0 .5-.5v-21.03a.5.5 0 0 0-.5-.5z" stroke="#5e5e5e" fill="#fff"/><use xlink:href="#B" transform="matrix(1,0,0,1,1042.2414011145909,336.3040291828727) translate(0.49479166666666696 16.444444444444443)"/><g filter="url(#C)"><path d="M1043.55 72.5a.5.5 0 0 1 .5-.5h193.66a.5.5 0 0 1 .5.5v26.14a.5.5 0 0 1-.5.5h-193.65a.5.5 0 0 1-.5-.5z" fill="#fff" fill-opacity="0"/><path d="M1044.05 72a.5.5 0 0 0-.5.5v26.14a.5.5 0 0 0 .5.5h193.66a.5.5 0 0 0 .5-.5V72.5a.5.5 0 0 0-.5-.5z" stroke="#6db1ff" stroke-width="3" fill="#6db1ff"/><use xlink:href="#D" transform="matrix(1,0,0,1,1054.835943935118,75.18070608188862) translate(1.2256944444444429 14.944444444444445)"/><use xlink:href="#E" transform="matrix(1,0,0,1,1054.835943935118,75.18070608188862) translate(108.22222222222221 14.944444444444445)"/><use xlink:href="#F" transform="matrix(1,0,0,1,1054.835943935118,75.18070608188862) translate(152.75347222222223 14.944444444444445)"/></g><g filter="url(#C)"><path d="M1043.55 139.8a.5.5 0 0 1 .5-.5h193.66a.5.5 0 0 1 .5.5v26.12a.5.5 0 0 1-.5.5h-193.65a.5.5 0 0 1-.5-.5z" fill="#fff" fill-opacity="0"/><path d="M1044.05 139.3a.5.5 0 0 0-.5.5v26.12a.5.5 0 0 0 .5.5h193.66a.5.5 0 0 0 .5-.5V139.8a.5.5 0 0 0-.5-.5z" stroke="#9391ff" stroke-width="3" fill="#9391ff"/><use xlink:href="#G" transform="matrix(1,0,0,1,1054.835943935118,142.46573980372557) translate(1.2256944444444429 14.944444444444445)"/><use xlink:href="#E" transform="matrix(1,0,0,1,1054.835943935118,142.46573980372557) translate(108.22222222222221 14.944444444444445)"/><use xlink:href="#H" transform="matrix(1,0,0,1,1054.835943935118,142.46573980372557) translate(152.75347222222223 14.944444444444445)"/></g><g filter="url(#C)"><path d="M1043.55 105.72a.5.5 0 0 1 .5-.5h193.66a.5.5 0 0 1 .5.5v26.14a.5.5 0 0 1-.5.5h-193.65a.5.5 0 0 1-.5-.5z" fill="#fff" fill-opacity="0"/><path d="M1044.05 105.22a.5.5 0 0 0-.5.5v26.14a.5.5 0 0 0 .5.5h193.66a.5.5 0 0 0 .5-.5v-26.14a.5.5 0 0 0-.5-.5z" stroke="#00ba95" stroke-width="3" fill="#00ba95"/><use xlink:href="#I" transform="matrix(1,0,0,1,1054.835943935118,108.39736829899786) translate(1.2256944444444429 14.944444444444445)"/><use xlink:href="#E" transform="matrix(1,0,0,1,1054.835943935118,108.39736829899786) translate(108.22222222222221 14.944444444444445)"/><use xlink:href="#J" transform="matrix(1,0,0,1,1054.835943935118,108.39736829899786) translate(152.75347222222223 14.944444444444445)"/></g><defs><path fill="#fff" d="M240-174c0 40-23 61-54 70L253 0h-59l-57-94H76V0H24v-248c93 4 217-23 216 74zM76-134c48-2 112 12 112-38 0-48-66-32-112-35v73" id="K"/><path fill="#fff" d="M199 0l-22-63H83L61 0H9l90-248h61L250 0h-51zm-33-102l-36-108c-10 38-24 72-36 108h72" id="L"/><path fill="#fff" d="M67-125c0 53 21 87 73 88 37 1 54-22 65-47l45 17C233-25 199 4 140 4 58 4 20-42 15-125 8-235 124-281 211-232c18 10 29 29 36 50l-46 12c-8-25-30-41-62-41-52 0-71 34-72 86" id="M"/><path fill="#fff" d="M195 0l-88-114-31 24V0H24v-248h52v113l112-113h60L142-143 257 0h-62" id="N"/><path fill="#fff" d="M23 0v-37h61v-169l-59 37v-38l62-41h46v211h57V0H23" id="O"/><g id="a"><use transform="matrix(0.06172839506172839,0,0,0.06172839506172839,0,0)" xlink:href="#K"/><use transform="matrix(0.06172839506172839,0,0,0.06172839506172839,15.987654320987653,0)" xlink:href="#L"/><use transform="matrix(0.06172839506172839,0,0,0.06172839506172839,31.975308641975307,0)" xlink:href="#M"/><use transform="matrix(0.06172839506172839,0,0,0.06172839506172839,47.96296296296296,0)" xlink:href="#N"/><use transform="matrix(0.06172839506172839,0,0,0.06172839506172839,63.95061728395061,0)" xlink:href="#O"/></g><path fill="#fff" d="M24 0v-248h52v208h133V0H24" id="P"/><path fill="#fff" d="M133-34C117-15 103 5 69 4 32 3 11-16 11-54c-1-60 55-63 116-61 1-26-3-47-28-47-18 1-26 9-28 27l-52-2c7-38 36-58 82-57s74 22 75 68l1 82c-1 14 12 18 25 15v27c-30 8-71 5-69-32zm-48 3c29 0 43-24 42-57-32 0-66-3-65 30 0 17 8 27 23 27" id="Q"/><path fill="#fff" d="M123 10C108 53 80 86 19 72V37c35 8 53-11 59-39L3-190h52l48 148c12-52 28-100 44-148h51" id="R"/><path fill="#fff" d="M185-48c-13 30-37 53-82 52C43 2 14-33 14-96s30-98 90-98c62 0 83 45 84 108H66c0 31 8 55 39 56 18 0 30-7 34-22zm-45-69c5-46-57-63-70-21-2 6-4 13-4 21h74" id="S"/><path fill="#fff" d="M135-150c-39-12-60 13-60 57V0H25l-1-190h47c2 13-1 29 3 40 6-28 27-53 61-41v41" id="T"/><g id="b"><use transform="matrix(0.08024691358024691,0,0,0.08024691358024691,0,0)" xlink:href="#P"/><use transform="matrix(0.08024691358024691,0,0,0.08024691358024691,17.574074074074073,0)" xlink:href="#Q"/><use transform="matrix(0.08024691358024691,0,0,0.08024691358024691,33.623456790123456,0)" xlink:href="#R"/><use transform="matrix(0.08024691358024691,0,0,0.08024691358024691,49.672839506172835,0)" xlink:href="#S"/><use transform="matrix(0.08024691358024691,0,0,0.08024691358024691,65.72222222222221,0)" xlink:href="#T"/></g><path fill="#fff" d="M182-182c0 78-84 86-111 141h115V0H12c-6-101 99-100 120-180 1-22-12-31-33-32-23 0-32 14-35 34l-49-3c5-45 32-70 84-70 51 0 83 22 83 69" id="U"/><use transform="matrix(0.08024691358024691,0,0,0.08024691358024691,0,0)" xlink:href="#U" id="c"/><path fill="#fff" d="M76-208v77h127v40H76V0H24v-248h183v40H76" id="V"/><path fill="#fff" d="M135-194c52 0 70 43 70 98 0 56-19 99-73 100-30 1-46-15-58-35L72 0H24l1-261h50v104c11-23 29-37 60-37zM114-30c31 0 40-27 40-66 0-37-7-63-39-63s-41 28-41 65c0 36 8 64 40 64" id="W"/><path fill="#fff" d="M25-224v-37h50v37H25zM25 0v-190h50V0H25" id="X"/><path fill="#fff" d="M190-63c-7 42-38 67-86 67-59 0-84-38-90-98-12-110 154-137 174-36l-49 2c-2-19-15-32-35-32-30 0-35 28-38 64-6 74 65 87 74 30" id="Y"/><g id="d"><use transform="matrix(0.08024691358024691,0,0,0.08024691358024691,0,0)" xlink:href="#V"/><use transform="matrix(0.08024691358024691,0,0,0.08024691358024691,17.574074074074073,0)" xlink:href="#Q"/><use transform="matrix(0.08024691358024691,0,0,0.08024691358024691,33.623456790123456,0)" xlink:href="#W"/><use transform="matrix(0.08024691358024691,0,0,0.08024691358024691,51.197530864197525,0)" xlink:href="#T"/><use transform="matrix(0.08024691358024691,0,0,0.08024691358024691,62.4320987654321,0)" xlink:href="#X"/><use transform="matrix(0.08024691358024691,0,0,0.08024691358024691,70.4567901234568,0)" xlink:href="#Y"/></g><path fill="#fff" d="M371-216h461V0H108v-1328h263v1112" id="Z"/><path fill="#fff" d="M928-1328v209H382v351h425v201H382v358h547L928 0H118v-1328h810" id="aa"/><path fill="#fff" d="M1240 0h-202c-47 1-76-24-87-58l-84-261H378L295-59c-11 29-44 59-86 59H4l484-1328h268zM437-503h370c-61-196-127-384-186-583-56 202-123 386-184 583" id="ab"/><path fill="#fff" d="M890-1328v209H373v376h433v209H373V0H109v-1328h781" id="ac"/><path fill="#fff" d="M113-955c38-239 181-388 448-388 186 0 310 81 369 209 18 42 27 87 27 134 1 168-77 256-203 297 151 51 227 154 227 307C981-126 800 8 532 14 260 20 143-131 76-338c63-25 186-102 236-14 46 82 93 164 218 164 130 0 203-76 210-200 9-175-112-206-288-206v-171c158-2 269-37 269-193 0-117-60-182-173-183-99-1-165 67-190 142-19 57-44 79-118 66" id="ad"/><g id="f"><use transform="matrix(0.013020833333333334,0,0,0.013020833333333334,0,0)" xlink:href="#Z"/><use transform="matrix(0.013020833333333334,0,0,0.013020833333333334,11.276041666666668,0)" xlink:href="#aa"/><use transform="matrix(0.013020833333333334,0,0,0.013020833333333334,23.958333333333336,0)" xlink:href="#ab"/><use transform="matrix(0.013020833333333334,0,0,0.013020833333333334,40.1171875,0)" xlink:href="#ac"/><use transform="matrix(0.013020833333333334,0,0,0.013020833333333334,52.356770833333336,0)" xlink:href="#ad"/></g><filter id="e" filterUnits="objectBoundingBox" x="-.06" y="-.04" width="1.12" height="1.21"><feOffset result="offOut" in="SourceAlpha" dy="6"/><feGaussianBlur result="blurOut" in="offOut" stdDeviation="5"/><feColorMatrix result="colorOut" in="blurOut" values="0 0 0 0 0 0 0 0 0 0 0 0 0 0 0 0 0 0 0.5019607843137255 0"/><feBlend in="SourceGraphic" in2="colorOut"/></filter><path fill="#fff" d="M1007-505c-9 70 29 185-49 186H854V0H644v-319H105c-83-4-69-108-90-173l609-837h230v824h153zm-363 0c3-182-8-376 8-546L269-505h375" id="ae"/><g id="g"><use transform="matrix(0.013020833333333334,0,0,0.013020833333333334,0,0)" xlink:href="#Z"/><use transform="matrix(0.013020833333333334,0,0,0.013020833333333334,11.276041666666668,0)" xlink:href="#aa"/><use transform="matrix(0.013020833333333334,0,0,0.013020833333333334,23.958333333333336,0)" xlink:href="#ab"/><use transform="matrix(0.013020833333333334,0,0,0.013020833333333334,40.1171875,0)" xlink:href="#ac"/><use transform="matrix(0.013020833333333334,0,0,0.013020833333333334,52.356770833333336,0)" xlink:href="#ae"/></g><path fill="#fff" d="M236-180h257c2-279-3-565 3-840L323-871c-27 30-91 18-110-9l-76-104 399-346h198v1150h227V0H236v-180" id="af"/><g id="h"><use transform="matrix(0.013020833333333334,0,0,0.013020833333333334,0,0)" xlink:href="#Z"/><use transform="matrix(0.013020833333333334,0,0,0.013020833333333334,11.276041666666668,0)" xlink:href="#aa"/><use transform="matrix(0.013020833333333334,0,0,0.013020833333333334,23.958333333333336,0)" xlink:href="#ab"/><use transform="matrix(0.013020833333333334,0,0,0.013020833333333334,40.1171875,0)" xlink:href="#ac"/><use transform="matrix(0.013020833333333334,0,0,0.013020833333333334,52.356770833333336,0)" xlink:href="#af"/></g><path fill="#fff" d="M89-955c40-238 181-388 449-388 250 0 409 134 409 381 0 232-139 347-258 472L407-195c126-46 310-24 475-29 49-1 86 32 85 80V0H69c-2-76 0-138 43-180 161-160 326-321 472-494 63-74 110-153 115-281 6-143-107-217-242-175-61 19-100 69-121 131-19 56-46 79-119 66" id="ag"/><g id="i"><use transform="matrix(0.013020833333333334,0,0,0.013020833333333334,0,0)" xlink:href="#Z"/><use transform="matrix(0.013020833333333334,0,0,0.013020833333333334,11.276041666666668,0)" xlink:href="#aa"/><use transform="matrix(0.013020833333333334,0,0,0.013020833333333334,23.958333333333336,0)" xlink:href="#ab"/><use transform="matrix(0.013020833333333334,0,0,0.013020833333333334,40.1171875,0)" xlink:href="#ac"/><use transform="matrix(0.013020833333333334,0,0,0.013020833333333334,52.356770833333336,0)" xlink:href="#ag"/></g><path d="M1007-505c-9 70 29 185-49 186H854V0H644v-319H105c-83-4-69-108-90-173l609-837h230v824h153zm-363 0c3-182-8-376 8-546L269-505h375" id="ah"/><path d="M137-1111c-27 1-55-27-55-55v-162h902c1 84-3 171-29 226L478-82C454-38 420 0 351 0H175l488-997c23-44 44-80 76-114H137" id="ai"/><g id="j"><use transform="matrix(0.008680555555555554,0,0,0.008680555555555554,0,0)" xlink:href="#ah"/><use transform="matrix(0.008680555555555554,0,0,0.008680555555555554,9.010416666666666,0)" xlink:href="#ai"/></g><path d="M977-395c0 272-183 410-458 410S61-123 61-395c0-179 82-285 228-334-115-51-185-151-185-308 0-185 109-293 248-348 99-39 235-39 334 0 140 55 248 162 248 348 0 158-70 257-186 308 146 49 229 155 229 334zm-654-4c0 133 63 217 196 217s196-84 196-217c0-142-55-224-196-224-140 0-196 84-196 224zm28-633c0 123 44 210 168 210 123 0 168-87 168-210 0-114-53-191-168-191s-168 77-168 191" id="aj"/><g id="k"><use transform="matrix(0.008680555555555554,0,0,0.008680555555555554,0,0)" xlink:href="#ah"/><use transform="matrix(0.008680555555555554,0,0,0.008680555555555554,9.010416666666666,0)" xlink:href="#aj"/></g><path fill="#fff" d="M469-200c119 0 194-62 190-182-5-155-165-165-285-207C212-646 83-736 88-958c4-182 105-295 242-352 113-48 278-41 392 4 65 25 120 59 166 104l-67 124c-13 37-61 47-98 23-55-35-117-75-210-75-111 0-181 57-181 159 0 146 173 155 287 201 153 61 292 138 287 351-7 273-167 433-444 433-190 0-326-77-424-175l78-125c18-34 71-42 108-14 63 47 132 100 245 100" id="ak"/><path fill="#fff" d="M1037-902c0 300-189 436-495 441H378V0H115v-1328h427c303 4 495 131 495 426zm-263 0c0-143-81-224-232-224H378v461h164c156 2 232-87 232-237" id="al"/><path fill="#fff" d="M405 0H141v-1328h264V0" id="am"/><path fill="#fff" d="M122-1328c70 6 164-16 206 20 6 5 13 12 20 21l654 862c-4-44-6-86-6-125v-778h231V0c-62-4-141 10-187-10-14-6-27-18-40-35L348-902c4 41 6 80 6 115V0H122v-1328" id="an"/><g id="l"><use transform="matrix(0.013020833333333334,0,0,0.013020833333333334,0,0)" xlink:href="#ak"/><use transform="matrix(0.013020833333333334,0,0,0.013020833333333334,12.604166666666668,0)" xlink:href="#al"/><use transform="matrix(0.013020833333333334,0,0,0.013020833333333334,26.796875,0)" xlink:href="#am"/><use transform="matrix(0.013020833333333334,0,0,0.013020833333333334,33.90625,0)" xlink:href="#an"/><use transform="matrix(0.013020833333333334,0,0,0.013020833333333334,51.47135416666667,0)" xlink:href="#aa"/><use transform="matrix(0.013020833333333334,0,0,0.013020833333333334,64.47916666666667,0)" xlink:href="#af"/></g><g id="m"><use transform="matrix(0.013020833333333334,0,0,0.013020833333333334,0,0)" xlink:href="#ak"/><use transform="matrix(0.013020833333333334,0,0,0.013020833333333334,12.604166666666668,0)" xlink:href="#al"/><use transform="matrix(0.013020833333333334,0,0,0.013020833333333334,26.796875,0)" xlink:href="#am"/><use transform="matrix(0.013020833333333334,0,0,0.013020833333333334,33.90625,0)" xlink:href="#an"/><use transform="matrix(0.013020833333333334,0,0,0.013020833333333334,51.47135416666667,0)" xlink:href="#aa"/><use transform="matrix(0.013020833333333334,0,0,0.013020833333333334,64.47916666666667,0)" xlink:href="#ag"/></g><path d="M236-180h257c2-279-3-565 3-840L323-871c-27 30-91 18-110-9l-76-104 399-346h198v1150h227V0H236v-180" id="ao"/><use transform="matrix(0.008680555555555554,0,0,0.008680555555555554,0,0)" xlink:href="#ao" id="n"/><path d="M89-955c40-238 181-388 449-388 250 0 409 134 409 381 0 232-139 347-258 472L407-195c126-46 310-24 475-29 49-1 86 32 85 80V0H69c-2-76 0-138 43-180 161-160 326-321 472-494 63-74 110-153 115-281 6-143-107-217-242-175-61 19-100 69-121 131-19 56-46 79-119 66" id="ap"/><use transform="matrix(0.008680555555555554,0,0,0.008680555555555554,0,0)" xlink:href="#ap" id="o"/><path d="M113-955c38-239 181-388 448-388 186 0 310 81 369 209 18 42 27 87 27 134 1 168-77 256-203 297 151 51 227 154 227 307C981-126 800 8 532 14 260 20 143-131 76-338c63-25 186-102 236-14 46 82 93 164 218 164 130 0 203-76 210-200 9-175-112-206-288-206v-171c158-2 269-37 269-193 0-117-60-182-173-183-99-1-165 67-190 142-19 57-44 79-118 66" id="aq"/><use transform="matrix(0.008680555555555554,0,0,0.008680555555555554,0,0)" xlink:href="#aq" id="p"/><use transform="matrix(0.008680555555555554,0,0,0.008680555555555554,0,0)" xlink:href="#ah" id="q"/><g id="r"><use transform="matrix(0.06172839506172839,0,0,0.06172839506172839,0,0)" xlink:href="#K"/><use transform="matrix(0.06172839506172839,0,0,0.06172839506172839,15.987654320987653,0)" xlink:href="#L"/><use transform="matrix(0.06172839506172839,0,0,0.06172839506172839,31.975308641975307,0)" xlink:href="#M"/><use transform="matrix(0.06172839506172839,0,0,0.06172839506172839,47.96296296296296,0)" xlink:href="#N"/><use transform="matrix(0.06172839506172839,0,0,0.06172839506172839,63.95061728395061,0)" xlink:href="#U"/></g><path fill="#fff" d="M1179 0H915v-575H377V0H113v-1328h264v567h538v-567h264V0" id="ar"/><path fill="#fff" d="M352-974c116-47 283-48 399 0 177 72 288 230 288 475 0 247-110 405-288 478-116 48-283 48-399 0C173-94 62-251 62-499c0-246 112-403 290-475zm-28 477c0 189 54 318 228 318 172 0 225-131 225-318s-53-318-225-318c-174 0-228 130-228 318" id="as"/><path fill="#fff" d="M80-702c6-234 206-338 457-298 93 15 166 59 220 115-26 37-46 85-79 115-8 4-17 7-28 7-73 0-113-61-203-61-94 0-160 79-107 152 93 83 270 88 356 179 39 42 70 95 69 176C761-63 553 47 286 6 191-9 109-52 51-106c29-40 47-92 85-123 77-33 115 38 178 55 22 6 48 12 80 12 81 0 133-35 133-110 0-69-60-91-116-111C252-440 75-483 80-702" id="at"/><path fill="#fff" d="M680-72c-61 52-150 86-256 87-172 2-267-108-267-279v-542c-63-2-138 16-138-53v-101l151-29 53-262c11-66 119-33 188-41v306h245v180H411v525c0 54 23 90 73 93 51 3 85-62 119-7" id="au"/><g id="t"><use transform="matrix(0.013020833333333334,0,0,0.013020833333333334,0,0)" xlink:href="#ar"/><use transform="matrix(0.013020833333333334,0,0,0.013020833333333334,16.822916666666668,0)" xlink:href="#as"/><use transform="matrix(0.013020833333333334,0,0,0.013020833333333334,31.158854166666668,0)" xlink:href="#at"/><use transform="matrix(0.013020833333333334,0,0,0.013020833333333334,41.497395833333336,0)" xlink:href="#au"/><use transform="matrix(0.013020833333333334,0,0,0.013020833333333334,50.7421875,0)" xlink:href="#ab"/></g><path fill="#fff" d="M273 14c-93 0-152-58-152-151 0-92 60-151 152-151s153 59 153 151c0 93-60 151-153 151" id="av"/><path fill="#fff" d="M960-966c48 161 48 442 0 603C896-149 775 14 517 14 261 14 140-150 78-363c-47-161-48-443 0-603 63-213 183-377 439-377s380 165 443 377zM602-206c161-87 169-454 126-694-24-133-71-244-211-244-138 0-184 113-207 244-41 238-36 607 122 694 54 29 116 28 170 0" id="aw"/><g id="u"><use transform="matrix(0.013020833333333334,0,0,0.013020833333333334,0,0)" xlink:href="#av"/><use transform="matrix(0.013020833333333334,0,0,0.013020833333333334,7.122395833333334,0)" xlink:href="#af"/><use transform="matrix(0.013020833333333334,0,0,0.013020833333333334,20.638020833333336,0)" xlink:href="#aw"/><use transform="matrix(0.013020833333333334,0,0,0.013020833333333334,34.153645833333336,0)" xlink:href="#af"/></g><filter id="s" filterUnits="objectBoundingBox" x="-.09" y="-.04" width="1.18" height="1.18"><feOffset result="offOut" in="SourceAlpha" dy="6"/><feGaussianBlur result="blurOut" in="offOut" stdDeviation="5"/><feColorMatrix result="colorOut" in="blurOut" values="0 0 0 0 0 0 0 0 0 0 0 0 0 0 0 0 0 0 0.5019607843137255 0"/><feBlend in="SourceGraphic" in2="colorOut"/></filter><path fill="#fff" d="M1048-974c0 163-99 241-224 288 171 41 257 139 257 293C1081-125 889 0 612 0H119v-1328h451c279 2 478 84 478 354zM823-399c0-131-83-178-217-178H382v373h225c139 0 216-61 216-195zm-37-542c0-143-71-185-216-185H382v368h173c140-1 231-45 231-183" id="ax"/><g id="v"><use transform="matrix(0.013020833333333334,0,0,0.013020833333333334,0,0)" xlink:href="#ar"/><use transform="matrix(0.013020833333333334,0,0,0.013020833333333334,16.822916666666668,0)" xlink:href="#as"/><use transform="matrix(0.013020833333333334,0,0,0.013020833333333334,31.158854166666668,0)" xlink:href="#at"/><use transform="matrix(0.013020833333333334,0,0,0.013020833333333334,41.497395833333336,0)" xlink:href="#au"/><use transform="matrix(0.013020833333333334,0,0,0.013020833333333334,50.7421875,0)" xlink:href="#ax"/></g><path fill="#fff" d="M1063-193C972-66 836 14 625 14 325 14 160-160 82-392c-55-162-54-387 4-546 84-230 253-399 553-405 185-4 321 74 409 173-37 47-65 102-108 143-52 29-90-19-122-42-68-49-222-71-314-21-130 72-193 222-193 425 0 205 69 355 201 427 92 51 249 32 318-20 30-23 81-99 128-48" id="ay"/><g id="w"><use transform="matrix(0.013020833333333334,0,0,0.013020833333333334,0,0)" xlink:href="#ar"/><use transform="matrix(0.013020833333333334,0,0,0.013020833333333334,16.822916666666668,0)" xlink:href="#as"/><use transform="matrix(0.013020833333333334,0,0,0.013020833333333334,31.158854166666668,0)" xlink:href="#at"/><use transform="matrix(0.013020833333333334,0,0,0.013020833333333334,41.497395833333336,0)" xlink:href="#au"/><use transform="matrix(0.013020833333333334,0,0,0.013020833333333334,50.7421875,0)" xlink:href="#ay"/></g><g id="x"><use transform="matrix(0.013020833333333334,0,0,0.013020833333333334,0,0)" xlink:href="#av"/><use transform="matrix(0.013020833333333334,0,0,0.013020833333333334,7.122395833333334,0)" xlink:href="#af"/><use transform="matrix(0.013020833333333334,0,0,0.013020833333333334,20.638020833333336,0)" xlink:href="#aw"/><use transform="matrix(0.013020833333333334,0,0,0.013020833333333334,34.153645833333336,0)" xlink:href="#ag"/></g><path fill="#fff" d="M1198-932c62 158 61 378 0 536C1107-162 916 0 600 0H116v-1328h484c315 6 507 163 598 396zM600-209c264-9 377-187 377-456 0-268-114-446-377-455H380v911h220" id="az"/><g id="y"><use transform="matrix(0.013020833333333334,0,0,0.013020833333333334,0,0)" xlink:href="#ar"/><use transform="matrix(0.013020833333333334,0,0,0.013020833333333334,16.822916666666668,0)" xlink:href="#as"/><use transform="matrix(0.013020833333333334,0,0,0.013020833333333334,31.158854166666668,0)" xlink:href="#at"/><use transform="matrix(0.013020833333333334,0,0,0.013020833333333334,41.497395833333336,0)" xlink:href="#au"/><use transform="matrix(0.013020833333333334,0,0,0.013020833333333334,50.7421875,0)" xlink:href="#az"/></g><path fill="#fff" d="M9-1328h220c46-1 79 23 88 58 77 303 157 598 228 906 11-49 22-97 35-140l232-766c10-30 44-58 86-58 75 0 146-5 164 58 80 278 169 552 250 830 7 23 12 48 17 73 69-308 150-601 226-903 8-30 45-58 86-58h206L1453 0h-238c-94-322-194-640-285-965C838-639 736-322 640 0H403" id="aA"/><path fill="#fff" d="M225-1c-20 54-71 94-136 94H-18l680-1441c20-52 64-88 131-89h107" id="aB"/><g id="z"><use transform="matrix(0.013020833333333334,0,0,0.013020833333333334,0,0)" xlink:href="#ac"/><use transform="matrix(0.013020833333333334,0,0,0.013020833333333334,12.239583333333334,0)" xlink:href="#aA"/><use transform="matrix(0.013020833333333334,0,0,0.013020833333333334,36.40625,0)" xlink:href="#aB"/><use transform="matrix(0.013020833333333334,0,0,0.013020833333333334,47.864583333333336,0)" xlink:href="#Z"/><use transform="matrix(0.013020833333333334,0,0,0.013020833333333334,59.140625,0)" xlink:href="#ad"/></g><path fill="#fff" d="M1-1328h211c47 0 77 24 88 58 97 290 184 584 280 873 10 32 19 65 28 100 14-67 35-133 54-191l249-782c10-30 44-58 87-58h212L724 0H487" id="aC"/><g id="A"><use transform="matrix(0.013020833333333334,0,0,0.013020833333333334,0,0)" xlink:href="#az"/><use transform="matrix(0.013020833333333334,0,0,0.013020833333333334,16.809895833333336,0)" xlink:href="#aa"/><use transform="matrix(0.013020833333333334,0,0,0.013020833333333334,29.817708333333336,0)" xlink:href="#aC"/><use transform="matrix(0.013020833333333334,0,0,0.013020833333333334,45.5859375,0)" xlink:href="#am"/><use transform="matrix(0.013020833333333334,0,0,0.013020833333333334,52.6953125,0)" xlink:href="#ay"/><use transform="matrix(0.013020833333333334,0,0,0.013020833333333334,66.80989583333333,0)" xlink:href="#aa"/></g><path d="M463-670c-69 0-128 14-183 34l-149-41 108-651h650v101c-3 78-52 116-142 116H407l-44 261c53-11 103-16 152-16 263 0 419 147 419 406 0 232-122 371-292 440-125 51-309 39-418-14-62-30-119-68-165-112l74-102c44-65 117-14 161 14 42 27 94 49 166 47 158-4 231-103 233-261 2-143-84-223-230-222" id="aD"/><use transform="matrix(0.008680555555555554,0,0,0.008680555555555554,0,0)" xlink:href="#aD" id="B"/><g id="D"><use transform="matrix(0.008680555555555554,0,0,0.008680555555555554,0,0)" xlink:href="#af"/><use transform="matrix(0.008680555555555554,0,0,0.008680555555555554,9.010416666666666,0)" xlink:href="#aw"/><use transform="matrix(0.008680555555555554,0,0,0.008680555555555554,18.020833333333332,0)" xlink:href="#av"/><use transform="matrix(0.008680555555555554,0,0,0.008680555555555554,22.76909722222222,0)" xlink:href="#af"/><use transform="matrix(0.008680555555555554,0,0,0.008680555555555554,31.779513888888882,0)" xlink:href="#aw"/><use transform="matrix(0.008680555555555554,0,0,0.008680555555555554,40.78993055555555,0)" xlink:href="#av"/><use transform="matrix(0.008680555555555554,0,0,0.008680555555555554,45.538194444444436,0)" xlink:href="#af"/><use transform="matrix(0.008680555555555554,0,0,0.008680555555555554,54.5486111111111,0)" xlink:href="#aw"/><use transform="matrix(0.008680555555555554,0,0,0.008680555555555554,63.559027777777764,0)" xlink:href="#av"/><use transform="matrix(0.008680555555555554,0,0,0.008680555555555554,68.30729166666666,0)" xlink:href="#aw"/><use transform="matrix(0.008680555555555554,0,0,0.008680555555555554,77.31770833333331,0)" xlink:href="#aB"/><use transform="matrix(0.008680555555555554,0,0,0.008680555555555554,84.95659722222221,0)" xlink:href="#ag"/><use transform="matrix(0.008680555555555554,0,0,0.008680555555555554,93.96701388888889,0)" xlink:href="#ae"/></g><g id="E"><use transform="matrix(0.008680555555555554,0,0,0.008680555555555554,0,0)" xlink:href="#aC"/><use transform="matrix(0.008680555555555554,0,0,0.008680555555555554,10.512152777777777,0)" xlink:href="#Z"/><use transform="matrix(0.008680555555555554,0,0,0.008680555555555554,18.029513888888886,0)" xlink:href="#ab"/><use transform="matrix(0.008680555555555554,0,0,0.008680555555555554,28.80208333333333,0)" xlink:href="#an"/></g><g id="F"><use transform="matrix(0.008680555555555554,0,0,0.008680555555555554,0,0)" xlink:href="#af"/><use transform="matrix(0.008680555555555554,0,0,0.008680555555555554,9.010416666666666,0)" xlink:href="#aw"/></g><filter id="C" filterUnits="objectBoundingBox" x="-.05" y="-.15" width="1.1" height="1.74"><feOffset result="offOut" in="SourceAlpha" dy="6"/><feGaussianBlur result="blurOut" in="offOut" stdDeviation="5"/><feColorMatrix result="colorOut" in="blurOut" values="0 0 0 0 0 0 0 0 0 0 0 0 0 0 0 0 0 0 0.5019607843137255 0"/><feBlend in="SourceGraphic" in2="colorOut"/></filter><g id="G"><use transform="matrix(0.008680555555555554,0,0,0.008680555555555554,0,0)" xlink:href="#af"/><use transform="matrix(0.008680555555555554,0,0,0.008680555555555554,9.010416666666666,0)" xlink:href="#aw"/><use transform="matrix(0.008680555555555554,0,0,0.008680555555555554,18.020833333333332,0)" xlink:href="#av"/><use transform="matrix(0.008680555555555554,0,0,0.008680555555555554,22.76909722222222,0)" xlink:href="#ad"/><use transform="matrix(0.008680555555555554,0,0,0.008680555555555554,31.779513888888882,0)" xlink:href="#aw"/><use transform="matrix(0.008680555555555554,0,0,0.008680555555555554,40.78993055555555,0)" xlink:href="#av"/><use transform="matrix(0.008680555555555554,0,0,0.008680555555555554,45.538194444444436,0)" xlink:href="#ad"/><use transform="matrix(0.008680555555555554,0,0,0.008680555555555554,54.5486111111111,0)" xlink:href="#aw"/><use transform="matrix(0.008680555555555554,0,0,0.008680555555555554,63.559027777777764,0)" xlink:href="#av"/><use transform="matrix(0.008680555555555554,0,0,0.008680555555555554,68.30729166666666,0)" xlink:href="#aw"/><use transform="matrix(0.008680555555555554,0,0,0.008680555555555554,77.31770833333331,0)" xlink:href="#aB"/><use transform="matrix(0.008680555555555554,0,0,0.008680555555555554,84.95659722222221,0)" xlink:href="#ag"/><use transform="matrix(0.008680555555555554,0,0,0.008680555555555554,93.96701388888889,0)" xlink:href="#ae"/></g><g id="H"><use transform="matrix(0.008680555555555554,0,0,0.008680555555555554,0,0)" xlink:href="#ad"/><use transform="matrix(0.008680555555555554,0,0,0.008680555555555554,9.010416666666666,0)" xlink:href="#aw"/></g><g id="I"><use transform="matrix(0.008680555555555554,0,0,0.008680555555555554,0,0)" xlink:href="#af"/><use transform="matrix(0.008680555555555554,0,0,0.008680555555555554,9.010416666666666,0)" xlink:href="#aw"/><use transform="matrix(0.008680555555555554,0,0,0.008680555555555554,18.020833333333332,0)" xlink:href="#av"/><use transform="matrix(0.008680555555555554,0,0,0.008680555555555554,22.76909722222222,0)" xlink:href="#ag"/><use transform="matrix(0.008680555555555554,0,0,0.008680555555555554,31.779513888888882,0)" xlink:href="#aw"/><use transform="matrix(0.008680555555555554,0,0,0.008680555555555554,40.78993055555555,0)" xlink:href="#av"/><use transform="matrix(0.008680555555555554,0,0,0.008680555555555554,45.538194444444436,0)" xlink:href="#ag"/><use transform="matrix(0.008680555555555554,0,0,0.008680555555555554,54.5486111111111,0)" xlink:href="#aw"/><use transform="matrix(0.008680555555555554,0,0,0.008680555555555554,63.559027777777764,0)" xlink:href="#av"/><use transform="matrix(0.008680555555555554,0,0,0.008680555555555554,68.30729166666666,0)" xlink:href="#aw"/><use transform="matrix(0.008680555555555554,0,0,0.008680555555555554,77.31770833333331,0)" xlink:href="#aB"/><use transform="matrix(0.008680555555555554,0,0,0.008680555555555554,84.95659722222221,0)" xlink:href="#ag"/><use transform="matrix(0.008680555555555554,0,0,0.008680555555555554,93.96701388888889,0)" xlink:href="#ae"/></g><g id="J"><use transform="matrix(0.008680555555555554,0,0,0.008680555555555554,0,0)" xlink:href="#ag"/><use transform="matrix(0.008680555555555554,0,0,0.008680555555555554,9.010416666666666,0)" xlink:href="#aw"/></g></defs></g></svg>